<?xml version="1.0" encoding="utf-8" standalone="no"?>
<!DOCTYPE svg PUBLIC "-//W3C//DTD SVG 1.1//EN" "http://www.w3.org/Graphics/SVG/1.1/DTD/svg11.dtd">
<svg version="1.1" width="595.5792pt" height="841.8576pt" viewBox="0 0 595.5792 841.8576" overflow="visible" xmlns="http://www.w3.org/2000/svg">
  <path d="M305.1175,371.8307 C305.4281,368.7667 301.9547,365.2933 298.8906,365.6039 C295.8266,365.2933 292.3531,368.7667 292.6638,371.8307 C292.3531,374.8948 295.8266,378.3683 298.8906,378.0576 C301.9547,378.3683 305.4281,374.8948 305.1175,371.8307 z" stroke="#000000" stroke-width="0.6096" fill="none" />
  <path d="M305.1175,397.806 C305.4281,394.742 301.9547,391.2685 298.8906,391.5792 C295.8266,391.2685 292.3531,394.742 292.6638,397.806 C292.3531,400.8701 295.8266,404.3435 298.8906,404.0329 C301.9547,404.3435 305.4281,400.8701 305.1175,397.806 z" stroke="#000000" stroke-width="0.6096" fill="none" />
  <path d="M305.1175,440.2998 C305.4281,437.2357 301.9547,433.7623 298.8906,434.0729 C295.8266,433.7623 292.3531,437.2357 292.6638,440.2998 C292.3531,443.3638 295.8266,446.8373 298.8906,446.5266 C301.9547,446.8373 305.4281,443.3638 305.1175,440.2998 z" stroke="#000000" stroke-width="0.6096" fill="none" />
  <path d="M305.1175,465.3466 C305.4281,462.2825 301.9547,458.8091 298.8906,459.1197 C295.8266,458.8091 292.3531,462.2825 292.6638,465.3466 C292.3531,468.4106 295.8266,471.8841 298.8906,471.5735 C301.9547,471.8841 305.4281,468.4106 305.1175,465.3466 z" stroke="#000000" stroke-width="0.6096" fill="none" />
  <path d="M305.1175,490.1143 C305.4281,487.0503 301.9547,483.5768 298.8906,483.8875 C295.8266,483.5768 292.3531,487.0503 292.6638,490.1143 C292.3531,493.1784 295.8266,496.6518 298.8906,496.3412 C301.9547,496.6518 305.4281,493.1784 305.1175,490.1143 z" stroke="#000000" stroke-width="0.6096" fill="none" />
  <path d="M305.1175,515.8755 C305.4281,512.8114 301.9547,509.338 298.8906,509.6486 C295.8266,509.338 292.3531,512.8114 292.6638,515.8755 C292.3531,518.9395 295.8266,522.413 298.8906,522.1024 C301.9547,522.413 305.4281,518.9395 305.1175,515.8755 z" stroke="#000000" stroke-width="0.6096" fill="none" />
  <path d="M305.1175,536.3784 C305.4281,533.3143 301.9547,529.8409 298.8906,530.1515 C295.8266,529.8409 292.3531,533.3143 292.6638,536.3784 C292.3531,539.4424 295.8266,542.9159 298.8906,542.6052 C301.9547,542.9159 305.4281,539.4424 305.1175,536.3784 z" stroke="#000000" stroke-width="0.6096" fill="none" />
  <path d="M274.4966,324.1454 C274.8072,321.0813 271.3338,317.6079 268.2697,317.9185 C265.2057,317.6079 261.7322,321.0813 262.0429,324.1454 C261.7322,327.2094 265.2057,330.6829 268.2697,330.3722 C271.3338,330.6829 274.8072,327.2094 274.4966,324.1454 z" stroke="#000000" stroke-width="0.6096" fill="none" />
  <path d="M271.1895,344.6075 C271.5001,341.5434 268.0266,338.07 264.9626,338.3806 C261.8986,338.07 258.4251,341.5434 258.7357,344.6075 C258.4251,347.6715 261.8986,351.145 264.9626,350.8343 C268.0266,351.145 271.5001,347.6715 271.1895,344.6075 z" stroke="#000000" stroke-width="0.6096" fill="none" />
  <path d="M247.0717,342.2609 C247.3824,339.1968 243.9089,335.7234 240.8449,336.034 C237.7808,335.7234 234.3074,339.1968 234.618,342.2609 C234.3074,345.3249 237.7808,348.7984 240.8449,348.4877 C243.9089,348.7984 247.3824,345.3249 247.0717,342.2609 z" stroke="#000000" stroke-width="0.6096" fill="none" />
  <path d="M223.3451,364.1624 C223.6557,361.0984 220.1823,357.6249 217.1182,357.9355 C214.0542,357.6249 210.5807,361.0984 210.8914,364.1624 C210.5807,367.2264 214.0542,370.6999 217.1182,370.3893 C220.1823,370.6999 223.6557,367.2264 223.3451,364.1624 z" stroke="#000000" stroke-width="0.6096" fill="none" />
  <path d="M243.943,367.5519 C244.2536,364.4879 240.7801,361.0144 237.7161,361.325 C234.6521,361.0144 231.1786,364.4879 231.4892,367.5519 C231.1786,370.6159 234.6521,374.0894 237.7161,373.7788 C240.7801,374.0894 244.2536,370.6159 243.943,367.5519 z" stroke="#000000" stroke-width="0.6096" fill="none" />
  <path d="M264.6712,370.2896 C264.9818,367.2256 261.5083,363.7521 258.4443,364.0627 C255.3803,363.7521 251.9068,367.2256 252.2174,370.2896 C251.9068,373.3536 255.3803,376.8271 258.4443,376.5164 C261.5083,376.8271 264.9818,373.3536 264.6712,370.2896 z" stroke="#000000" stroke-width="0.6096" fill="none" />
  <path d="M285.0083,369.6378 C285.3189,366.5737 281.8455,363.1003 278.7814,363.4109 C275.7174,363.1003 272.2439,366.5737 272.5546,369.6378 C272.2439,372.7018 275.7174,376.1753 278.7814,375.8646 C281.8455,376.1753 285.3189,372.7018 285.0083,369.6378 z" stroke="#000000" stroke-width="0.6096" fill="none" />
  <path d="M282.4006,397.9869 C282.7112,394.9229 279.2378,391.4494 276.1737,391.76 C273.1097,391.4494 269.6362,394.9229 269.9468,397.9869 C269.6362,401.0509 273.1097,404.5244 276.1737,404.2138 C279.2378,404.5244 282.7112,401.0509 282.4006,397.9869 z" stroke="#000000" stroke-width="0.6096" fill="none" />
  <path d="M262.9281,396.3973 C263.2387,393.3333 259.7653,389.8598 256.7013,390.1704 C253.6372,389.8598 250.1638,393.3333 250.4744,396.3973 C250.1638,399.4614 253.6372,402.9348 256.7013,402.6242 C259.7653,402.9348 263.2387,399.4614 262.9281,396.3973 z" stroke="#000000" stroke-width="0.6096" fill="none" />
  <path d="M241.4687,394.4103 C241.7793,391.3463 238.3058,387.8728 235.2418,388.1835 C232.1778,387.8728 228.7043,391.3463 229.0149,394.4103 C228.7043,397.4744 232.1778,400.9478 235.2418,400.6372 C238.3058,400.9478 241.7793,397.4744 241.4687,394.4103 z" stroke="#000000" stroke-width="0.6096" fill="none" />
  <path d="M218.6183,393.8142 C218.929,390.7502 215.4555,387.2767 212.3915,387.5874 C209.3274,387.2767 205.854,390.7502 206.1646,393.8142 C205.854,396.8783 209.3274,400.3517 212.3915,400.0411 C215.4555,400.3517 218.929,396.8783 218.6183,393.8142 z" stroke="#000000" stroke-width="0.6096" fill="none" />
  <path d="M305.1175,419.5083 C305.4281,416.4443 301.9547,412.9708 298.8906,413.2815 C295.8266,412.9708 292.3531,416.4443 292.6638,419.5083 C292.3531,422.5724 295.8266,426.0458 298.8906,425.7352 C301.9547,426.0458 305.4281,422.5724 305.1175,419.5083 z" stroke="#000000" stroke-width="0.6096" fill="none" />
  <path d="M282.9644,419.5083 C283.275,416.4443 279.8015,412.9708 276.7375,413.2815 C273.6735,412.9708 270.2,416.4443 270.5107,419.5083 C270.2,422.5724 273.6735,426.0458 276.7375,425.7352 C279.8015,426.0458 283.275,422.5724 282.9644,419.5083 z" stroke="#000000" stroke-width="0.6096" fill="none" />
  <path d="M262.5219,419.5083 C262.8326,416.4443 259.3591,412.9708 256.2951,413.2815 C253.231,412.9708 249.7576,416.4443 250.0682,419.5083 C249.7576,422.5724 253.231,426.0458 256.2951,425.7352 C259.3591,426.0458 262.8326,422.5724 262.5219,419.5083 z" stroke="#000000" stroke-width="0.6096" fill="none" />
  <path d="M239.6846,419.5083 C239.9952,416.4443 236.5217,412.9708 233.4577,413.2815 C230.3937,412.9708 226.9202,416.4443 227.2308,419.5083 C226.9202,422.5724 230.3937,426.0458 233.4577,425.7352 C236.5217,426.0458 239.9952,422.5724 239.6846,419.5083 z" stroke="#000000" stroke-width="0.6096" fill="none" />
  <path d="M218.3349,419.5083 C218.6456,416.4443 215.1721,412.9708 212.1081,413.2815 C209.044,412.9708 205.5706,416.4443 205.8812,419.5083 C205.5706,422.5724 209.044,426.0458 212.1081,425.7352 C215.1721,426.0458 218.6456,422.5724 218.3349,419.5083 z" stroke="#000000" stroke-width="0.6096" fill="none" />
  <path d="M201.2263,419.5083 C201.537,416.4443 198.0635,412.9708 194.9995,413.2815 C191.9355,412.9708 188.462,416.4443 188.7726,419.5083 C188.462,422.5724 191.9355,426.0458 194.9995,425.7352 C198.0635,426.0458 201.537,422.5724 201.2263,419.5083 z" stroke="#000000" stroke-width="0.6096" fill="none" />
  <path d="M281.9919,439.8774 C282.3025,436.8134 278.829,433.3399 275.765,433.6505 C272.7009,433.3399 269.2275,436.8134 269.5381,439.8774 C269.2275,442.9414 272.7009,446.4149 275.765,446.1042 C278.829,446.4149 282.3025,442.9414 281.9919,439.8774 z" stroke="#000000" stroke-width="0.6096" fill="none" />
  <path d="M264.2516,443.5733 C264.5623,440.5092 261.0888,437.0358 258.0247,437.3464 C254.9607,437.0358 251.4873,440.5092 251.7979,443.5733 C251.4873,446.6373 254.9607,450.1107 258.0247,449.8001 C261.0888,450.1107 264.5623,446.6373 264.2516,443.5733 z" stroke="#000000" stroke-width="0.6096" fill="none" />
  <path d="M241.3372,445.8964 C241.6478,442.8323 238.1743,439.3589 235.1103,439.6695 C232.0462,439.3589 228.5728,442.8323 228.8834,445.8964 C228.5728,448.9604 232.0462,452.4339 235.1103,452.1233 C238.1743,452.4339 241.6478,448.9604 241.3372,445.8964 z" stroke="#000000" stroke-width="0.6096" fill="none" />
  <path d="M221.485,448.0083 C221.7956,444.9443 218.3222,441.4708 215.2581,441.7815 C212.1941,441.4708 208.7206,444.9443 209.0313,448.0083 C208.7206,451.0724 212.1941,454.5458 215.2581,454.2352 C218.3222,454.5458 221.7956,451.0724 221.485,448.0083 z" stroke="#000000" stroke-width="0.6096" fill="none" />
  <path d="M222.7522,471.662 C223.0628,468.5979 219.5893,465.1245 216.5253,465.4351 C213.4613,465.1245 209.9878,468.5979 210.2984,471.662 C209.9878,474.726 213.4613,478.1994 216.5253,477.8888 C219.5893,478.1994 223.0628,474.726 222.7522,471.662 z" stroke="#000000" stroke-width="0.6096" fill="none" />
  <path d="M243.7659,468.2829 C244.0765,465.2188 240.6031,461.7454 237.539,462.056 C234.475,461.7454 231.0015,465.2188 231.3121,468.2829 C231.0015,471.3469 234.475,474.8203 237.539,474.5097 C240.6031,474.8203 244.0765,471.3469 243.7659,468.2829 z" stroke="#000000" stroke-width="0.6096" fill="none" />
  <path d="M265.73,466.0653 C266.0406,463.0013 262.5671,459.5278 259.5031,459.8385 C256.4391,459.5278 252.9656,463.0013 253.2762,466.0653 C252.9656,469.1294 256.4391,472.6028 259.5031,472.2922 C262.5671,472.6028 266.0406,469.1294 265.73,466.0653 z" stroke="#000000" stroke-width="0.6096" fill="none" />
  <path d="M284.1038,464.3758 C284.4144,461.3117 280.9409,457.8383 277.8769,458.1489 C274.8129,457.8383 271.3394,461.3117 271.65,464.3758 C271.3394,467.4398 274.8129,470.9133 277.8769,470.6027 C280.9409,470.9133 284.4144,467.4398 284.1038,464.3758 z" stroke="#000000" stroke-width="0.6096" fill="none" />
  <path d="M270.4273,489.7904 C270.738,486.7264 267.2645,483.253 264.2005,483.5636 C261.1364,483.253 257.663,486.7264 257.9736,489.7904 C257.663,492.8545 261.1364,496.3279 264.2005,496.0173 C267.2645,496.3279 270.738,492.8545 270.4273,489.7904 z" stroke="#000000" stroke-width="0.6096" fill="none" />
  <path d="M247.8949,493.975 C248.2056,490.911 244.7321,487.4375 241.6681,487.7482 C238.604,487.4375 235.1306,490.911 235.4412,493.975 C235.1306,497.0391 238.604,500.5125 241.6681,500.2019 C244.7321,500.5125 248.2056,497.0391 247.8949,493.975 z" stroke="#000000" stroke-width="0.6096" fill="none" />
  <path d="M279.565,514.5975 C279.8756,511.5335 276.4022,508.06 273.3382,508.3707 C270.2741,508.06 266.8007,511.5335 267.1113,514.5975 C266.8007,517.6616 270.2741,521.135 273.3382,520.8244 C276.4022,521.135 279.8756,517.6616 279.565,514.5975 z" stroke="#000000" stroke-width="0.6096" fill="none" />
  <path d="M323.2846,324.1454 C322.974,321.0813 326.4475,317.6079 329.5115,317.9185 C332.5756,317.6079 336.049,321.0813 335.7384,324.1454 C336.049,327.2094 332.5756,330.6829 329.5115,330.3722 C326.4475,330.6829 322.974,327.2094 323.2846,324.1454 z" stroke="#000000" stroke-width="0.6096" fill="none" />
  <path d="M326.5918,344.6075 C326.2811,341.5434 329.7546,338.07 332.8186,338.3806 C335.8827,338.07 339.3561,341.5434 339.0455,344.6075 C339.3561,347.6715 335.8827,351.145 332.8186,350.8343 C329.7546,351.145 326.2811,347.6715 326.5918,344.6075 z" stroke="#000000" stroke-width="0.6096" fill="none" />
  <path d="M350.7095,342.2609 C350.3989,339.1968 353.8723,335.7234 356.9364,336.034 C360.0004,335.7234 363.4738,339.1968 363.1632,342.2609 C363.4738,345.3249 360.0004,348.7984 356.9364,348.4877 C353.8723,348.7984 350.3989,345.3249 350.7095,342.2609 z" stroke="#000000" stroke-width="0.6096" fill="none" />
  <path d="M374.4361,364.1624 C374.1255,361.0984 377.599,357.6249 380.663,357.9355 C383.7271,357.6249 387.2005,361.0984 386.8899,364.1624 C387.2005,367.2264 383.7271,370.6999 380.663,370.3893 C377.599,370.6999 374.1255,367.2264 374.4361,364.1624 z" stroke="#000000" stroke-width="0.6096" fill="none" />
  <path d="M353.8383,367.5519 C353.5276,364.4879 357.0011,361.0144 360.0652,361.325 C363.1292,361.0144 366.6027,364.4879 366.292,367.5519 C366.6027,370.6159 363.1292,374.0894 360.0652,373.7788 C357.0011,374.0894 353.5276,370.6159 353.8383,367.5519 z" stroke="#000000" stroke-width="0.6096" fill="none" />
  <path d="M333.1101,370.2896 C332.7994,367.2256 336.2729,363.7521 339.3369,364.0627 C342.401,363.7521 345.8744,367.2256 345.5638,370.2896 C345.8744,373.3536 342.401,376.8271 339.3369,376.5164 C336.2729,376.8271 332.7994,373.3536 333.1101,370.2896 z" stroke="#000000" stroke-width="0.6096" fill="none" />
  <path d="M312.7729,369.6378 C312.4623,366.5737 315.9358,363.1003 318.9998,363.4109 C322.0639,363.1003 325.5373,366.5737 325.2267,369.6378 C325.5373,372.7018 322.0639,376.1753 318.9998,375.8646 C315.9358,376.1753 312.4623,372.7018 312.7729,369.6378 z" stroke="#000000" stroke-width="0.6096" fill="none" />
  <path d="M315.3806,397.9869 C315.07,394.9229 318.5435,391.4494 321.6075,391.76 C324.6716,391.4494 328.145,394.9229 327.8344,397.9869 C328.145,401.0509 324.6716,404.5244 321.6075,404.2138 C318.5435,404.5244 315.07,401.0509 315.3806,397.9869 z" stroke="#000000" stroke-width="0.6096" fill="none" />
  <path d="M334.8531,396.3973 C334.5425,393.3333 338.016,389.8598 341.08,390.1704 C344.144,389.8598 347.6175,393.3333 347.3069,396.3973 C347.6175,399.4614 344.144,402.9348 341.08,402.6242 C338.016,402.9348 334.5425,399.4614 334.8531,396.3973 z" stroke="#000000" stroke-width="0.6096" fill="none" />
  <path d="M356.3126,394.4103 C356.0019,391.3463 359.4754,387.8728 362.5394,388.1835 C365.6035,387.8728 369.0769,391.3463 368.7663,394.4103 C369.0769,397.4744 365.6035,400.9478 362.5394,400.6372 C359.4754,400.9478 356.0019,397.4744 356.3126,394.4103 z" stroke="#000000" stroke-width="0.6096" fill="none" />
  <path d="M379.1629,393.8142 C378.8523,390.7502 382.3257,387.2767 385.3898,387.5874 C388.4538,387.2767 391.9273,390.7502 391.6166,393.8142 C391.9273,396.8783 388.4538,400.3517 385.3898,400.0411 C382.3257,400.3517 378.8523,396.8783 379.1629,393.8142 z" stroke="#000000" stroke-width="0.6096" fill="none" />
  <path d="M314.8169,419.5083 C314.5062,416.4443 317.9797,412.9708 321.0437,413.2815 C324.1078,412.9708 327.5812,416.4443 327.2706,419.5083 C327.5812,422.5724 324.1078,426.0458 321.0437,425.7352 C317.9797,426.0458 314.5062,422.5724 314.8169,419.5083 z" stroke="#000000" stroke-width="0.6096" fill="none" />
  <path d="M335.2593,419.5083 C334.9487,416.4443 338.4221,412.9708 341.4862,413.2815 C344.5502,412.9708 348.0237,416.4443 347.713,419.5083 C348.0237,422.5724 344.5502,426.0458 341.4862,425.7352 C338.4221,426.0458 334.9487,422.5724 335.2593,419.5083 z" stroke="#000000" stroke-width="0.6096" fill="none" />
  <path d="M358.0967,419.5083 C357.786,416.4443 361.2595,412.9708 364.3235,413.2815 C367.3876,412.9708 370.861,416.4443 370.5504,419.5083 C370.861,422.5724 367.3876,426.0458 364.3235,425.7352 C361.2595,426.0458 357.786,422.5724 358.0967,419.5083 z" stroke="#000000" stroke-width="0.6096" fill="none" />
  <path d="M379.4463,419.5083 C379.1357,416.4443 382.6091,412.9708 385.6732,413.2815 C388.7372,412.9708 392.2107,416.4443 391.9001,419.5083 C392.2107,422.5724 388.7372,426.0458 385.6732,425.7352 C382.6091,426.0458 379.1357,422.5724 379.4463,419.5083 z" stroke="#000000" stroke-width="0.6096" fill="none" />
  <path d="M396.5549,419.5083 C396.2443,416.4443 399.7177,412.9708 402.7818,413.2815 C405.8458,412.9708 409.3192,416.4443 409.0086,419.5083 C409.3192,422.5724 405.8458,426.0458 402.7818,425.7352 C399.7177,426.0458 396.2443,422.5724 396.5549,419.5083 z" stroke="#000000" stroke-width="0.6096" fill="none" />
  <path d="M315.7894,439.8774 C315.4788,436.8134 318.9522,433.3399 322.0163,433.6505 C325.0803,433.3399 328.5538,436.8134 328.2431,439.8774 C328.5538,442.9414 325.0803,446.4149 322.0163,446.1042 C318.9522,446.4149 315.4788,442.9414 315.7894,439.8774 z" stroke="#000000" stroke-width="0.6096" fill="none" />
  <path d="M333.5296,443.5733 C333.219,440.5092 336.6924,437.0358 339.7565,437.3464 C342.8205,437.0358 346.294,440.5092 345.9834,443.5733 C346.294,446.6373 342.8205,450.1107 339.7565,449.8001 C336.6924,450.1107 333.219,446.6373 333.5296,443.5733 z" stroke="#000000" stroke-width="0.6096" fill="none" />
  <path d="M356.4441,445.8964 C356.1335,442.8323 359.6069,439.3589 362.671,439.6695 C365.735,439.3589 369.2084,442.8323 368.8978,445.8964 C369.2084,448.9604 365.735,452.4339 362.671,452.1233 C359.6069,452.4339 356.1335,448.9604 356.4441,445.8964 z" stroke="#000000" stroke-width="0.6096" fill="none" />
  <path d="M376.2962,448.0083 C375.9856,444.9443 379.4591,441.4708 382.5231,441.7815 C385.5871,441.4708 389.0606,444.9443 388.75,448.0083 C389.0606,451.0724 385.5871,454.5458 382.5231,454.2352 C379.4591,454.5458 375.9856,451.0724 376.2962,448.0083 z" stroke="#000000" stroke-width="0.6096" fill="none" />
  <path d="M375.0291,471.662 C374.7184,468.5979 378.1919,465.1245 381.256,465.4351 C384.32,465.1245 387.7934,468.5979 387.4828,471.662 C387.7934,474.726 384.32,478.1994 381.256,477.8888 C378.1919,478.1994 374.7184,474.726 375.0291,471.662 z" stroke="#000000" stroke-width="0.6096" fill="none" />
  <path d="M354.0154,468.2829 C353.7047,465.2188 357.1782,461.7454 360.2422,462.056 C363.3063,461.7454 366.7797,465.2188 366.4691,468.2829 C366.7797,471.3469 363.3063,474.8203 360.2422,474.5097 C357.1782,474.8203 353.7047,471.3469 354.0154,468.2829 z" stroke="#000000" stroke-width="0.6096" fill="none" />
  <path d="M332.0513,466.0653 C331.7406,463.0013 335.2141,459.5278 338.2781,459.8385 C341.3422,459.5278 344.8156,463.0013 344.505,466.0653 C344.8156,469.1294 341.3422,472.6028 338.2781,472.2922 C335.2141,472.6028 331.7406,469.1294 332.0513,466.0653 z" stroke="#000000" stroke-width="0.6096" fill="none" />
  <path d="M313.6775,464.3758 C313.3669,461.3117 316.8403,457.8383 319.9043,458.1489 C322.9684,457.8383 326.4418,461.3117 326.1312,464.3758 C326.4418,467.4398 322.9684,470.9133 319.9043,470.6027 C316.8403,470.9133 313.3669,467.4398 313.6775,464.3758 z" stroke="#000000" stroke-width="0.6096" fill="none" />
  <path d="M327.3539,489.7904 C327.0433,486.7264 330.5167,483.253 333.5807,483.5636 C336.6448,483.253 340.1183,486.7264 339.8076,489.7904 C340.1183,492.8545 336.6448,496.3279 333.5807,496.0173 C330.5167,496.3279 327.0433,492.8545 327.3539,489.7904 z" stroke="#000000" stroke-width="0.6096" fill="none" />
  <path d="M349.8863,493.975 C349.5757,490.911 353.0491,487.4375 356.1132,487.7482 C359.1772,487.4375 362.6507,490.911 362.3401,493.975 C362.6507,497.0391 359.1772,500.5125 356.1132,500.2019 C353.0491,500.5125 349.5757,497.0391 349.8863,493.975 z" stroke="#000000" stroke-width="0.6096" fill="none" />
  <path d="M318.2162,514.5975 C317.9056,511.5335 321.3791,508.06 324.4431,508.3707 C327.5071,508.06 330.9806,511.5335 330.67,514.5975 C330.9806,517.6616 327.5071,521.135 324.4431,520.8244 C321.3791,521.135 317.9056,517.6616 318.2162,514.5975 z" stroke="#000000" stroke-width="0.6096" fill="none" />
  <path d="M403.3752,421.3654 L416.6975,421.3654" stroke="#000000" stroke-width="0.6096" fill="none" />
  <path d="M407.3684,447.5505 L407.3684,397.1111" stroke="#000000" stroke-width="0.6096" fill="none" />
  <path d="M401.9211,439.0132 C404.699,444.6889 409.3978,451.0546 412.1682,451.0546 C415.1637,451.0546 415.9048,443.6128 416.2892,437.6476 L416.7014,422.7056" stroke="#000000" stroke-width="0.6096" fill="none" />
  <path d="M403.3883,419.5083 C403.3905,410.593 402.4673,401.2362 400.41,391.8202" stroke="#000000" stroke-width="0.6096" fill="none" />
  <path d="M401.9211,439.0132 C402.9267,432.3788 403.3888,425.8347 403.3883,419.5083" stroke="#000000" stroke-width="0.6096" fill="none" />
  <path d="M416.7014,422.7056 C416.7014,418.2172 416.6736,413.7288 413.5048,407.0935 C410.3361,400.4582 404.0262,391.676 401.0308,391.676 L400.41,391.8202" stroke="#000000" stroke-width="0.6096" fill="none" />
  <path d="M181.0838,421.3654 L194.4062,421.3654" stroke="#000000" stroke-width="0.6096" fill="none" />
  <path d="M190.413,397.1111 L190.413,447.5505" stroke="#000000" stroke-width="0.6096" fill="none" />
  <path d="M195.8602,439.0132 C193.0822,444.6889 188.3835,451.0546 185.613,451.0546 C182.6176,451.0546 181.8765,443.6128 181.4921,437.6476 L181.0799,422.7056" stroke="#000000" stroke-width="0.6096" fill="none" />
  <path d="M197.3713,391.8202 C195.3139,401.2362 194.3908,410.593 194.3929,419.5083 C194.3925,425.8347 194.8545,432.3788 195.8602,439.0132" stroke="#000000" stroke-width="0.6096" fill="none" />
  <path d="M181.0799,422.7056 C181.0799,418.2172 181.1076,413.7288 184.2764,407.0935 C187.4452,400.4582 193.755,391.676 196.7505,391.676 L197.3713,391.8202" stroke="#000000" stroke-width="0.6096" fill="none" />
  <path d="M350.202,317.7543 L362.1971,319.3829" stroke="#000000" stroke-width="0.6096" fill="none" />
  <path d="M340.0117,312.1271 L341.0122,304.7585" stroke="#000000" stroke-width="0.6096" fill="none" />
  <path d="M378.2218,343.4803 C372.4899,328.1804 364.0267,320.628 357.7781,315.639 C351.4718,310.6039 347.4211,308.1798 345.1143,306.968 C342.8073,305.7563 342.2442,305.7569 339.6372,303.7536 C337.0683,301.7795 332.5149,297.8595 320.4534,291.5958 C320.536,293.713 319.904,295.1505 319.0973,296.4483 C318.2877,297.7506 317.3022,298.9122 315.859,299.5194 C314.4159,300.1266 312.5152,300.1794 305.7583,302.9554 C330.9135,304.3923 359.5223,318.5551 378.2218,343.4803 z" stroke="#000000" stroke-width="0.6096" fill="none" />
  <path d="M247.5323,317.7828 L235.3208,319.455" stroke="#000000" stroke-width="0.6096" fill="none" />
  <path d="M257.5087,312.2524 L256.4891,304.8065" stroke="#000000" stroke-width="0.6096" fill="none" />
  <path d="M219.1658,343.9965 C224.8815,328.404 233.4349,320.7482 239.7355,315.706 C246.0361,310.6638 250.0839,308.235 252.3895,307.0207 C254.695,305.8063 255.2582,305.8063 257.8629,303.8 C260.4508,301.8066 265.0539,297.8327 277.3339,291.4641 C277.2408,293.7028 277.8744,295.1459 278.6839,296.4483 C279.4935,297.7506 280.4791,298.9122 281.9222,299.5194 C283.3654,300.1266 285.2661,300.1794 292.0232,302.9557 C266.6911,304.3927 237.8588,318.7708 219.1658,343.9965 z" stroke="#000000" stroke-width="0.6096" fill="none" />
  <path d="M279.9177,283.1491 L317.8637,283.1491" stroke="#000000" stroke-width="0.6096" fill="none" />
  <path d="M298.8907,302.9557 L298.8907,263.4318" stroke="#000000" stroke-width="0.6096" fill="none" />
  <path d="M305.758,302.9557 C312.5151,300.1794 314.4159,300.1266 315.859,299.5194 C317.3022,298.9122 318.2877,297.7506 319.0973,296.4483 C319.9069,295.1459 320.5405,293.7028 320.4525,291.5732 C320.3645,289.4437 319.5549,286.6278 318.6221,284.6039 L315.595,279.6408 L311.2049,272.1036 C308.8738,268.4558 305.2325,263.3425 298.8906,263.4318 C292.5487,263.3425 288.9074,268.4558 286.5764,272.1036 L282.1862,279.6408 L279.1591,284.6039 C278.2263,286.6278 277.4168,289.4437 277.3288,291.5732 C277.2408,293.7028 277.8744,295.1459 278.6839,296.4483 C279.4935,297.7506 280.4791,298.9122 281.9222,299.5194 C283.3654,300.1266 285.2661,300.1794 292.0232,302.9557 z" stroke="#000000" stroke-width="0.6096" fill="none" />
  <path d="M194.393,419.5084 L403.3883,419.5084" stroke="#000000" stroke-width="0.6096" fill="none" />
  <path d="M298.8907,536.3135 L298.8907,302.7032" stroke="#000000" stroke-width="0.6096" fill="none" />
  <path d="M403.3883,419.5083 C404.0363,392.2628 392.9744,359.4856 372.7816,336.9146 C352.5889,314.3436 323.2654,301.9789 298.8906,302.7032 C274.5158,301.9789 245.1923,314.3436 224.9996,336.9146 C204.8069,359.4856 193.7449,392.2628 194.3929,419.5083 C193.7449,446.7539 204.8069,479.5311 224.9996,502.1021 C245.1923,524.673 274.5158,537.0378 298.8906,536.3135 C323.2654,537.0378 352.5889,524.673 372.7816,502.1021 C392.9744,479.5311 404.0363,446.7539 403.3883,419.5083 z" stroke="#000000" stroke-width="0.6096" fill="none" />
  <path d="M305.1175,322.3492 C305.4281,319.2851 301.9547,315.8117 298.8906,316.1223 C295.8266,315.8117 292.3531,319.2851 292.6638,322.3492 C292.3531,325.4132 295.8266,328.8867 298.8906,328.576 C301.9547,328.8867 305.4281,325.4132 305.1175,322.3492 z" stroke="#000000" stroke-width="0.6096" fill="none" />
  <path d="M305.1175,346.91 C305.4281,343.8459 301.9547,340.3725 298.8906,340.6831 C295.8266,340.3725 292.3531,343.8459 292.6638,346.91 C292.3531,349.974 295.8266,353.4474 298.8906,353.1368 C301.9547,353.4474 305.4281,349.974 305.1175,346.91 z" stroke="#000000" stroke-width="0.6096" fill="none" />
  <path d="M298.8907,556.1073 L298.8907,6.096E-05" stroke="#000000" stroke-width="0.6096" fill="none" />
  <path d="M194.393,419.5084 L403.3883,419.5084" stroke="#000000" stroke-width="0.6096" fill="none" />
  <text x="319.371083807722" y="515.987629803669" font-family="Segoe UI" fill="#000000" font-size="0.483053922653198">O_{2}63</text>
  <text x="271.472804108481" y="399.383288985845" font-family="Segoe UI" fill="#000000" font-size="0.483053922653198">FC_{1}3</text>
  <text x="333.948589358128" y="444.963364455282" font-family="Segoe UI" fill="#000000" font-size="0.483053922653198">CP_{4}20</text>
  <text x="209.607467437966" y="449.379551458197" font-family="Segoe UI" fill="#000000" font-size="0.483053922653198">TP_{7}45</text>
  <text x="292.894020551373" y="491.504446553454" font-family="Segoe UI" fill="#000000" font-size="0.483053922653198">PO_{Z}58</text>
  <text x="232.806651108946" y="469.67296382034" font-family="Segoe UI" fill="#000000" font-size="0.483053922653198">P_{5}48</text>
  <text x="355.45230449461" y="368.941998821077" font-family="Segoe UI" fill="#000000" font-size="0.483053922653198">F_{6}37</text>
  <text x="294.208581323332" y="373.220851946404" font-family="Segoe UI" fill="#000000" font-size="0.483053922653198">F_{Z}34</text>
  <text x="229.417217441077" y="420.898420551354" font-family="Segoe UI" fill="#000000" font-size="0.483053922653198">C_{5}8</text>
  <text x="271.829043602822" y="420.904710315813" font-family="Segoe UI" fill="#000000" font-size="0.483053922653198">C_{1}10</text>
  <text x="229.340118668076" y="447.29277894637" font-family="Segoe UI" fill="#000000" font-size="0.483053922653198">CP_{5}15</text>
  <text x="333.596105097549" y="467.455435672194" font-family="Segoe UI" fill="#000000" font-size="0.483053922653198">P_{4}53</text>
  <text x="294.07649626969" y="399.196124622369" font-family="Segoe UI" fill="#000000" font-size="0.483053922653198">FC_{Z}4</text>
  <text x="274.212597398152" y="371.034146925944" font-family="Segoe UI" fill="#000000" font-size="0.483053922653198">F_{1}33</text>
  <text x="251.968893260581" y="397.787410484602" font-family="Segoe UI" fill="#000000" font-size="0.483053922653198">FC_{3}2</text>
  <text x="327.029593969172" y="345.997557076589" font-family="Segoe UI" fill="#000000" font-size="0.483053922653198">AF_{4}28</text>
  <text x="206.942074074384" y="395.204328787328" font-family="Segoe UI" fill="#000000" font-size="0.483053922653198">FT_{7}39</text>
  <text x="334.717797472346" y="371.679687892863" font-family="Segoe UI" fill="#000000" font-size="0.483053922653198">F_{4}36</text>
  <text x="269.963352561795" y="441.27377397283" font-family="Segoe UI" fill="#000000" font-size="0.483053922653198">CP_{1}17</text>
  <text x="316.89404042251" y="399.376999221386" font-family="Segoe UI" fill="#000000" font-size="0.483053922653198">FC_{2}5</text>
  <text x="235.093573113664" y="343.65096644363" font-family="Segoe UI" fill="#000000" font-size="0.483053922653198">AF_{7}25</text>
  <text x="336.628015747011" y="420.904710315813" font-family="Segoe UI" fill="#000000" font-size="0.483053922653198">C_{4}13</text>
  <text x="351.159910559058" y="343.65096644363" font-family="Segoe UI" fill="#000000" font-size="0.483053922653198">AF_{8}29</text>
  <text x="316.220943701876" y="441.27377397283" font-family="Segoe UI" fill="#000000" font-size="0.483053922653198">CP_{2}19</text>
  <text x="252.216837612166" y="444.969654219741" font-family="Segoe UI" fill="#000000" font-size="0.483053922653198">CP_{3}16</text>
  <text x="357.09576817396" y="447.29277894637" font-family="Segoe UI" fill="#000000" font-size="0.483053922653198">CP_{6}21</text>
  <text x="293.05755442731" y="348.30005942438" font-family="Segoe UI" fill="#000000" font-size="0.483053922653198">AF_{Z}27</text>
  <text x="211.799221755257" y="473.033185038423" font-family="Segoe UI" fill="#000000" font-size="0.483053922653198">P_{7}47</text>
  <text x="293.736848988897" y="517.265569324599" font-family="Segoe UI" fill="#000000" font-size="0.483053922653198">O_{Z}62</text>
  <text x="294.340666376974" y="466.74297359716" font-family="Segoe UI" fill="#000000" font-size="0.483053922653198">P_{Z}51</text>
  <text x="254.78331896236" y="467.455435672194" font-family="Segoe UI" fill="#000000" font-size="0.483053922653198">P_{3}49</text>
  <text x="294.567097897503" y="537.768492859491" font-family="Segoe UI" fill="#000000" font-size="0.483053922653198">I_{Z}64</text>
  <text x="190.260829917656" y="420.898420551354" font-family="Segoe UI" fill="#000000" font-size="0.483053922653198">T_{9}43</text>
  <text x="357.794501572403" y="395.800424563622" font-family="Segoe UI" fill="#000000" font-size="0.483053922653198">FC_{6}7</text>
  <text x="327.647059607513" y="491.180550166018" font-family="Segoe UI" fill="#000000" font-size="0.483053922653198">PO_{4}59</text>
  <text x="268.448551215324" y="515.993919568128" font-family="Segoe UI" fill="#000000" font-size="0.483053922653198">O_{7}61</text>
  <text x="379.927806515332" y="395.204328787328" font-family="Segoe UI" fill="#000000" font-size="0.483053922653198">FT_{8}40</text>
  <text x="230.723297305607" y="395.806714328081" font-family="Segoe UI" fill="#000000" font-size="0.483053922653198">FC_{5}1</text>
  <text x="233.329664490684" y="368.948288585536" font-family="Segoe UI" fill="#000000" font-size="0.483053922653198">F_{5}31</text>
  <text x="294.164552972118" y="420.904710315813" font-family="Segoe UI" fill="#000000" font-size="0.483053922653198">C_{Z}11</text>
  <text x="252.267168998547" y="420.898420551354" font-family="Segoe UI" fill="#000000" font-size="0.483053922653198">C_{3}9</text>
  <text x="212.499092094167" y="365.552479017915" font-family="Segoe UI" fill="#000000" font-size="0.483053922653198">F_{7}30</text>
  <text x="380.903091081862" y="420.898420551354" font-family="Segoe UI" fill="#000000" font-size="0.483053922653198">T_{8}42</text>
  <text x="336.32876386136" y="397.787410484602" font-family="Segoe UI" fill="#000000" font-size="0.483053922653198">FC_{4}6</text>
  <text x="293.032395369474" y="441.696160286763" font-family="Segoe UI" fill="#000000" font-size="0.483053922653198">CP_{Z}18</text>
  <text x="376.04386584168" y="365.552479017915" font-family="Segoe UI" fill="#000000" font-size="0.483053922653198">F_{8}38</text>
  <text x="316.154125296162" y="420.904710315813" font-family="Segoe UI" fill="#000000" font-size="0.483053922653198">C_{2}12</text>
  <text x="314.418417240123" y="371.027857161485" font-family="Segoe UI" fill="#000000" font-size="0.483053922653198">F_{2}35</text>
  <text x="323.980358949894" y="325.535456233177" font-family="Segoe UI" fill="#000000" font-size="0.483053922653198">F_{P2}24</text>
  <text x="359.402490130972" y="420.904710315813" font-family="Segoe UI" fill="#000000" font-size="0.483053922653198">C_{6}14</text>
  <text x="259.173571587876" y="345.997557076589" font-family="Segoe UI" fill="#000000" font-size="0.483053922653198">AF_{3}26</text>
  <text x="207.551810151557" y="420.904710315813" font-family="Segoe UI" fill="#000000" font-size="0.483053922653198">T_{7}41</text>
  <text x="258.260487019956" y="491.180550166018" font-family="Segoe UI" fill="#000000" font-size="0.483053922653198">PO_{3}57</text>
  <text x="397.112231828791" y="420.904710315813" font-family="Segoe UI" fill="#000000" font-size="0.483053922653198">T_{10}44</text>
  <text x="253.875478579174" y="371.679687892863" font-family="Segoe UI" fill="#000000" font-size="0.483053922653198">F_{3}23</text>
  <text x="262.770016115099" y="325.541745997636" font-family="Segoe UI" fill="#000000" font-size="0.483053922653198">F_{P1}22</text>
  <text x="293.372042650267" y="323.739258433179" font-family="Segoe UI" fill="#000000" font-size="0.483053922653198">F_{PZ}23</text>
  <text x="235.721776911583" y="495.365142515601" font-family="Segoe UI" fill="#000000" font-size="0.483053922653198">PO_{7}56</text>
  <text x="376.561333011275" y="473.052054331801" font-family="Segoe UI" fill="#000000" font-size="0.483053922653198">P_{8}55</text>
  <text x="315.190851619184" y="465.765890416463" font-family="Segoe UI" fill="#000000" font-size="0.483053922653198">P_{2}52</text>
  <text x="355.497295777454" y="469.67296382034" font-family="Segoe UI" fill="#000000" font-size="0.483053922653198">P_{6}54</text>
  <text x="350.166900422509" y="495.365142515601" font-family="Segoe UI" fill="#000000" font-size="0.483053922653198">PO_{8}60</text>
  <text x="376.834709168529" y="449.398420751574" font-family="Segoe UI" fill="#000000" font-size="0.483053922653198">TP_{8}46</text>
  <text x="273.144544089511" y="465.772180180922" font-family="Segoe UI" fill="#000000" font-size="0.483053922653198">P_{1}50</text>
  <text x="260.094791892627" y="325.143513592792" font-family="Arial" fill="#BFBFFF" font-size="3.78042197227478">F_{P1}22</text>
  <text x="376.45300635302" y="448.875230216659" font-family="Arial" fill="#BFBFFF" font-size="3.78042197227478">TP_{8}46</text>
  <text x="355.328242674529" y="446.888452598626" font-family="Arial" fill="#BFBFFF" font-size="3.78042197227478">CP_{6}21</text>
  <text x="291.572776248106" y="347.390995386871" font-family="Arial" fill="#BFBFFF" font-size="3.78042197227478">AF_{Z}27</text>
  <text x="314.346596425125" y="440.437528168074" font-family="Arial" fill="#BFBFFF" font-size="3.78042197227478">CP_{2}19</text>
  <text x="355.387014627736" y="395.393896805366" font-family="Arial" fill="#BFBFFF" font-size="3.78042197227478">FC_{6}7</text>
  <text x="230.880265464928" y="369.318658662992" font-family="Arial" fill="#BFBFFF" font-size="3.78042197227478">F_{5}31</text>
  <text x="374.052038479741" y="365.46748304372" font-family="Arial" fill="#BFBFFF" font-size="3.78042197227478">F_{8}38</text>
  <text x="353.143915940076" y="369.268959869114" font-family="Arial" fill="#BFBFFF" font-size="3.78042197227478">F_{6}37</text>
  <text x="332.333213929226" y="371.097735525283" font-family="Arial" fill="#BFBFFF" font-size="3.78042197227478">F_{4}36</text>
  <text x="312.353285314428" y="371.300480955971" font-family="Arial" fill="#BFBFFF" font-size="3.78042197227478">F_{2}35</text>
  <text x="292.054580626948" y="535.95737659092" font-family="Arial" fill="#BFBFFF" font-size="3.78042197227478">I_{Z}64</text>
  <text x="321.214471658518" y="514.56469766099" font-family="Arial" fill="#BFBFFF" font-size="3.78042197227478">O_{2}63</text>
  <text x="291.223616458165" y="399.05569001927" font-family="Arial" fill="#BFBFFF" font-size="3.78042197227478">FC_{Z}4</text>
  <text x="267.539214167362" y="514.684990245979" font-family="Arial" fill="#BFBFFF" font-size="3.78042197227478">O_{7}61</text>
  <text x="349.776659601984" y="494.208394346078" font-family="Arial" fill="#BFBFFF" font-size="3.78042197227478">PO_{8}60</text>
  <text x="206.017844062015" y="420.55191476015" font-family="Arial" fill="#BFBFFF" font-size="3.78042197227478">T_{7}41</text>
  <text x="289.824467146617" y="491.948324743207" font-family="Arial" fill="#BFBFFF" font-size="3.78042197227478">PO_{Z}58</text>
  <text x="255.225526970364" y="491.739486432581" font-family="Arial" fill="#BFBFFF" font-size="3.78042197227478">PO_{3}57</text>
  <text x="290.336099559946" y="421.027439898787" font-family="Arial" fill="#BFBFFF" font-size="3.78042197227478">C_{Z}11</text>
  <text x="372.656725404315" y="475.425086344551" font-family="Arial" fill="#BFBFFF" font-size="3.78042197227478">P_{8}55</text>
  <text x="355.34878283322" y="468.401639430315" font-family="Arial" fill="#BFBFFF" font-size="3.78042197227478">P_{6}54</text>
  <text x="334.786046638423" y="466.396585853615" font-family="Arial" fill="#BFBFFF" font-size="3.78042197227478">P_{4}53</text>
  <text x="315.356518119284" y="466.010102165173" font-family="Arial" fill="#BFBFFF" font-size="3.78042197227478">P_{2}52</text>
  <text x="292.007304946847" y="466.950926503129" font-family="Arial" fill="#BFBFFF" font-size="3.78042197227478">P_{Z}51</text>
  <text x="270.473162768202" y="465.925029965538" font-family="Arial" fill="#BFBFFF" font-size="3.78042197227478">P_{1}50</text>
  <text x="251.826918939646" y="465.582897051253" font-family="Arial" fill="#BFBFFF" font-size="3.78042197227478">P_{3}49</text>
  <text x="230.871277939664" y="469.089759422678" font-family="Arial" fill="#BFBFFF" font-size="3.78042197227478">P_{5}48</text>
  <text x="209.402437568254" y="472.938754708389" font-family="Arial" fill="#BFBFFF" font-size="3.78042197227478">P_{7}47</text>
  <text x="293.029654515638" y="441.255928115646" font-family="Arial" fill="#BFBFFF" font-size="3.78042197227478">CP_{Z}18</text>
  <text x="269.196675706515" y="440.701672794503" font-family="Arial" fill="#BFBFFF" font-size="3.78042197227478">CP_{1}17</text>
  <text x="395.081065762594" y="420.656713703504" font-family="Arial" fill="#BFBFFF" font-size="3.78042197227478">T_{10}44</text>
  <text x="377.597648216057" y="420.507760917253" font-family="Arial" fill="#BFBFFF" font-size="3.78042197227478">T_{8}42</text>
  <text x="357.230961838814" y="420.728839490931" font-family="Arial" fill="#BFBFFF" font-size="3.78042197227478">C_{6}14</text>
  <text x="334.564656267405" y="420.728839490931" font-family="Arial" fill="#BFBFFF" font-size="3.78042197227478">C_{4}13</text>
  <text x="232.644754627526" y="495.930614632578" font-family="Arial" fill="#BFBFFF" font-size="3.78042197227478">PO_{7}56</text>
  <text x="312.193620873403" y="420.64468208002" font-family="Arial" fill="#BFBFFF" font-size="3.78042197227478">C_{2}12</text>
  <text x="267.698186370455" y="420.703891801926" font-family="Arial" fill="#BFBFFF" font-size="3.78042197227478">C_{1}10</text>
  <text x="247.31811110155" y="420.901259709553" font-family="Arial" fill="#BFBFFF" font-size="3.78042197227478">C_{3}9</text>
  <text x="326.417899215189" y="490.670624809367" font-family="Arial" fill="#BFBFFF" font-size="3.78042197227478">PO_{4}59</text>
  <text x="224.817491736013" y="420.439678057619" font-family="Arial" fill="#BFBFFF" font-size="3.78042197227478">C_{5}8</text>
  <text x="188.116090008267" y="420.215204652556" font-family="Arial" fill="#BFBFFF" font-size="3.78042197227478">T_{9}43</text>
  <text x="334.609328018862" y="397.099591471654" font-family="Arial" fill="#BFBFFF" font-size="3.78042197227478">FC_{4}6</text>
  <text x="294.176350779123" y="516.366857233411" font-family="Arial" fill="#BFBFFF" font-size="3.78042197227478">O_{Z}62</text>
  <text x="314.33795284745" y="399.32345541451" font-family="Arial" fill="#BFBFFF" font-size="3.78042197227478">FC_{2}5</text>
  <text x="268.082190591897" y="399.461798726226" font-family="Arial" fill="#BFBFFF" font-size="3.78042197227478">FC_{1}3</text>
  <text x="248.952729513261" y="398.152062683892" font-family="Arial" fill="#BFBFFF" font-size="3.78042197227478">FC_{3}2</text>
  <text x="228.424754656135" y="395.072866455323" font-family="Arial" fill="#BFBFFF" font-size="3.78042197227478">FC_{5}1</text>
  <text x="205.929515541869" y="394.474133855324" font-family="Arial" fill="#BFBFFF" font-size="3.78042197227478">FT_{7}39</text>
  <text x="290.796799782877" y="372.745042149621" font-family="Arial" fill="#BFBFFF" font-size="3.78042197227478">F_{Z}34</text>
  <text x="271.080882893465" y="370.430590634419" font-family="Arial" fill="#BFBFFF" font-size="3.78042197227478">F_{1}33</text>
  <text x="378.559168223585" y="394.703981299114" font-family="Arial" fill="#BFBFFF" font-size="3.78042197227478">FT_{8}40</text>
  <text x="252.263572607767" y="369.83185803442" font-family="Arial" fill="#BFBFFF" font-size="3.78042197227478">F_{3}23</text>
  <text x="210.437823836374" y="366.496062120137" font-family="Arial" fill="#BFBFFF" font-size="3.78042197227478">F_{7}30</text>
  <text x="342.153537341538" y="342.744745933612" font-family="Arial" fill="#BFBFFF" font-size="3.78042197227478">AF_{8}29</text>
  <text x="332.864411361794" y="444.425523281913" font-family="Arial" fill="#BFBFFF" font-size="3.78042197227478">CP_{4}20</text>
  <text x="322.512573743671" y="346.546222759006" font-family="Arial" fill="#BFBFFF" font-size="3.78042197227478">AF_{4}28</text>
  <text x="259.260223232261" y="345.912643288107" font-family="Arial" fill="#BFBFFF" font-size="3.78042197227478">AF_{3}26</text>
  <text x="234.973010181135" y="343.061535669062" font-family="Arial" fill="#BFBFFF" font-size="3.78042197227478">AF_{7}25</text>
  <text x="249.160193214534" y="444.66431476823" font-family="Arial" fill="#BFBFFF" font-size="3.78042197227478">CP_{3}16</text>
  <text x="316.157024807028" y="323.852791513682" font-family="Arial" fill="#BFBFFF" font-size="3.78042197227478">F_{P2}24</text>
  <text x="290.715687721363" y="323.347315792794" font-family="Arial" fill="#BFBFFF" font-size="3.78042197227478">F_{PZ}23</text>
  <text x="206.733145846284" y="449.257449142512" font-family="Arial" fill="#BFBFFF" font-size="3.78042197227478">TP_{7}45</text>
  <text x="227.379156558838" y="447.248273603371" font-family="Arial" fill="#BFBFFF" font-size="3.78042197227478">CP_{5}15</text>
</svg>